<svg width="590" height="154" viewBox="0 0 590 154" fill="none" xmlns="http://www.w3.org/2000/svg">
<path d="M256.759 105.351H248.551V99.1494H248.368C246.788 101.46 244.599 103.253 241.802 104.53C239.066 105.807 236.239 106.445 233.32 106.445C229.976 106.445 226.936 105.868 224.2 104.713C221.525 103.557 219.215 101.946 217.269 99.879C215.384 97.8118 213.925 95.4102 212.892 92.6742C211.858 89.9382 211.341 86.9589 211.341 83.7365C211.341 80.5141 211.858 77.5349 212.892 74.7989C213.925 72.0021 215.384 69.6005 217.269 67.5941C219.215 65.5269 221.525 63.9157 224.2 62.7605C226.936 61.6053 229.976 61.0277 233.32 61.0277C236.421 61.0277 239.34 61.6965 242.076 63.0341C244.812 64.3109 246.909 66.0741 248.368 68.3237H248.551V36.4037H256.759V105.351ZM234.324 98.7846C236.512 98.7846 238.488 98.4198 240.252 97.6902C242.015 96.8998 243.504 95.8662 244.72 94.5894C245.936 93.2518 246.879 91.671 247.548 89.847C248.216 87.9622 248.551 85.9254 248.551 83.7365C248.551 81.5478 248.216 79.5414 247.548 77.7174C246.879 75.8325 245.936 74.2517 244.72 72.9749C243.504 71.6373 242.015 70.6037 240.252 69.8741C238.488 69.0837 236.512 68.6885 234.324 68.6885C232.135 68.6885 230.159 69.0837 228.396 69.8741C226.632 70.6037 225.143 71.6373 223.927 72.9749C222.711 74.2517 221.768 75.8325 221.1 77.7174C220.431 79.5414 220.096 81.5478 220.096 83.7365C220.096 85.9254 220.431 87.9622 221.1 89.847C221.768 91.671 222.711 93.2518 223.927 94.5894C225.143 95.8662 226.632 96.8998 228.396 97.6902C230.159 98.4198 232.135 98.7846 234.324 98.7846ZM269.192 36.4037H277.4V68.3237H277.582C279.042 66.0741 281.139 64.3109 283.875 63.0341C286.611 61.6965 289.53 61.0277 292.63 61.0277C295.974 61.0277 298.984 61.6053 301.659 62.7605C304.395 63.9157 306.706 65.5269 308.59 67.5941C310.536 69.6005 312.026 72.0021 313.059 74.7989C314.093 77.5349 314.61 80.5141 314.61 83.7365C314.61 86.9589 314.093 89.9382 313.059 92.6742C312.026 95.4102 310.536 97.8118 308.59 99.879C306.706 101.946 304.395 103.557 301.659 104.713C298.984 105.868 295.974 106.445 292.63 106.445C289.712 106.445 286.854 105.807 284.058 104.53C281.322 103.253 279.163 101.46 277.582 99.1494H277.4V105.351H269.192V36.4037ZM291.627 98.7846C293.816 98.7846 295.792 98.4198 297.555 97.6902C299.318 96.8998 300.808 95.8662 302.024 94.5894C303.24 93.2518 304.182 91.671 304.851 89.847C305.52 87.9622 305.854 85.9254 305.854 83.7365C305.854 81.5478 305.52 79.5414 304.851 77.7174C304.182 75.8325 303.24 74.2517 302.024 72.9749C300.808 71.6373 299.318 70.6037 297.555 69.8741C295.792 69.0837 293.816 68.6885 291.627 68.6885C289.438 68.6885 287.462 69.0837 285.699 69.8741C283.936 70.6037 282.446 71.6373 281.23 72.9749C280.014 74.2517 279.072 75.8325 278.403 77.7174C277.734 79.5414 277.4 81.5478 277.4 83.7365C277.4 85.9254 277.734 87.9622 278.403 89.847C279.072 91.671 280.014 93.2518 281.23 94.5894C282.446 95.8662 283.936 96.8998 285.699 97.6902C287.462 98.4198 289.438 98.7846 291.627 98.7846ZM324.945 62.1221H332.606V68.8709H332.788C332.971 68.2629 333.427 67.5029 334.156 66.5909C334.947 65.6789 335.919 64.8277 337.075 64.0373C338.291 63.1861 339.689 62.4869 341.27 61.9397C342.911 61.3317 344.705 61.0277 346.651 61.0277C349.873 61.0277 352.579 61.6965 354.767 63.0341C356.956 64.3717 358.75 66.3781 360.148 69.0533C361.547 66.3781 363.523 64.3717 366.076 63.0341C368.63 61.6965 371.214 61.0277 373.828 61.0277C377.172 61.0277 379.908 61.5749 382.036 62.6693C384.164 63.7637 385.836 65.2229 387.052 67.0469C388.268 68.8101 389.089 70.8469 389.515 73.1573C390.001 75.4069 390.244 77.7477 390.244 80.1797V105.351H382.036V81.2742C382.036 79.6326 381.915 78.0517 381.671 76.5317C381.489 75.0117 381.063 73.6741 380.395 72.5189C379.726 71.3637 378.783 70.4517 377.567 69.7829C376.351 69.0533 374.74 68.6885 372.734 68.6885C368.782 68.6885 365.955 69.9045 364.252 72.3365C362.55 74.7685 361.699 77.8997 361.699 81.7302V105.351H353.491V82.7334C353.491 80.6662 353.369 78.7814 353.126 77.079C352.943 75.3765 352.518 73.9173 351.849 72.7013C351.241 71.4245 350.329 70.4517 349.113 69.7829C347.958 69.0533 346.377 68.6885 344.371 68.6885C342.911 68.6885 341.483 68.9925 340.084 69.6005C338.747 70.1477 337.561 70.9989 336.527 72.1541C335.494 73.3093 334.673 74.7989 334.065 76.6229C333.457 78.3861 333.153 80.4837 333.153 82.9158V105.351H324.945V62.1221ZM403.246 36.4037H411.454V105.351H403.246V36.4037Z" fill="#0246CC"/>
<path d="M430.992 105.898C429.351 105.898 427.922 105.321 426.706 104.165C425.551 102.949 424.973 101.521 424.973 99.879C424.973 98.2374 425.551 96.839 426.706 95.6838C427.922 94.4678 429.351 93.8598 430.992 93.8598C432.634 93.8598 434.032 94.4678 435.187 95.6838C436.403 96.839 437.011 98.2374 437.011 99.879C437.011 101.521 436.403 102.949 435.187 104.165C434.032 105.321 432.634 105.898 430.992 105.898ZM456.557 83.7365C456.557 85.9254 456.892 87.9622 457.561 89.847C458.229 91.671 459.172 93.2518 460.388 94.5894C461.604 95.8662 463.093 96.8998 464.857 97.6902C466.62 98.4198 468.596 98.7846 470.785 98.7846C472.973 98.7846 474.949 98.4198 476.713 97.6902C478.476 96.8998 479.965 95.8662 481.181 94.5894C482.397 93.2518 483.34 91.671 484.009 89.847C484.677 87.9622 485.012 85.9254 485.012 83.7365C485.012 81.5478 484.677 79.5414 484.009 77.7174C483.34 75.8325 482.397 74.2517 481.181 72.9749C479.965 71.6373 478.476 70.6037 476.713 69.8741C474.949 69.0837 472.973 68.6885 470.785 68.6885C468.596 68.6885 466.62 69.0837 464.857 69.8741C463.093 70.6037 461.604 71.6373 460.388 72.9749C459.172 74.2517 458.229 75.8325 457.561 77.7174C456.892 79.5414 456.557 81.5478 456.557 83.7365ZM447.802 83.7365C447.802 80.575 448.38 77.6261 449.535 74.8901C450.751 72.1541 452.393 69.7525 454.46 67.6853C456.527 65.6181 458.959 64.0069 461.756 62.8517C464.553 61.6357 467.562 61.0277 470.785 61.0277C474.007 61.0277 477.017 61.6357 479.813 62.8517C482.61 64.0069 485.042 65.6181 487.109 67.6853C489.177 69.7525 490.788 72.1541 491.943 74.8901C493.159 77.6261 493.767 80.575 493.767 83.7365C493.767 86.8982 493.159 89.8774 491.943 92.6742C490.788 95.4102 489.177 97.8118 487.109 99.879C485.042 101.885 482.61 103.497 479.813 104.713C477.017 105.868 474.007 106.445 470.785 106.445C467.562 106.445 464.553 105.868 461.756 104.713C458.959 103.497 456.527 101.885 454.46 99.879C452.393 97.8118 450.751 95.4102 449.535 92.6742C448.38 89.8774 447.802 86.8982 447.802 83.7365ZM504.05 62.1221H512.258V68.7797H512.44C512.987 67.6245 513.717 66.5909 514.629 65.6789C515.541 64.7061 516.544 63.8853 517.639 63.2165C518.794 62.5477 520.04 62.0309 521.378 61.6661C522.715 61.2405 524.053 61.0277 525.391 61.0277C526.728 61.0277 527.944 61.2101 529.039 61.5749L528.674 70.4213C528.005 70.2389 527.336 70.0869 526.667 69.9653C525.999 69.8437 525.33 69.7829 524.661 69.7829C520.648 69.7829 517.578 70.9077 515.45 73.1573C513.322 75.4069 512.258 78.9029 512.258 83.6454V105.351H504.05V62.1221ZM579.521 104.986C579.521 108.269 578.944 111.249 577.789 113.924C576.694 116.66 575.113 119.001 573.046 120.946C570.979 122.953 568.486 124.503 565.568 125.597C562.649 126.692 559.427 127.239 555.9 127.239C551.766 127.239 547.966 126.661 544.5 125.506C541.096 124.351 537.843 122.345 534.742 119.487L540.305 112.556C542.433 114.866 544.744 116.599 547.236 117.754C549.729 118.97 552.556 119.578 555.718 119.578C558.758 119.578 561.281 119.122 563.288 118.21C565.294 117.359 566.875 116.234 568.03 114.836C569.246 113.437 570.097 111.826 570.584 110.002C571.07 108.239 571.313 106.445 571.313 104.621V98.2374H571.04C569.459 100.852 567.3 102.797 564.564 104.074C561.889 105.29 559.062 105.898 556.083 105.898C552.921 105.898 549.972 105.351 547.236 104.257C544.561 103.101 542.251 101.551 540.305 99.6054C538.36 97.599 536.84 95.2582 535.745 92.583C534.651 89.847 534.104 86.8982 534.104 83.7365C534.104 80.575 534.62 77.6261 535.654 74.8901C536.688 72.0933 538.147 69.6613 540.032 67.5941C541.977 65.5269 544.288 63.9157 546.963 62.7605C549.699 61.6053 552.739 61.0277 556.083 61.0277C559.001 61.0277 561.828 61.6661 564.564 62.9429C567.361 64.2197 569.55 66.0133 571.131 68.3237H571.313V62.1221H579.521V104.986ZM557.086 68.6885C554.897 68.6885 552.921 69.0837 551.158 69.8741C549.395 70.6037 547.905 71.6373 546.689 72.9749C545.473 74.2517 544.531 75.8325 543.862 77.7174C543.193 79.5414 542.859 81.5478 542.859 83.7365C542.859 88.1142 544.136 91.6406 546.689 94.3158C549.243 96.9302 552.708 98.2374 557.086 98.2374C561.464 98.2374 564.929 96.9302 567.483 94.3158C570.036 91.6406 571.313 88.1142 571.313 83.7365C571.313 81.5478 570.979 79.5414 570.31 77.7174C569.641 75.8325 568.699 74.2517 567.483 72.9749C566.267 71.6373 564.777 70.6037 563.014 69.8741C561.251 69.0837 559.275 68.6885 557.086 68.6885Z" fill="#287EFF"/>
<path d="M153.509 28.7211C153.509 12.8589 140.65 0 124.788 0H28.7211C12.8589 0 1.11461e-05 12.8589 1.11461e-05 28.7211V124.788C1.11461e-05 140.65 12.8589 153.509 28.7211 153.509H124.788C140.65 153.509 153.509 140.65 153.509 124.788V28.7211Z" fill="#0246CC"/>
<path d="M26.6219 93.9605V110.978C26.6219 116.592 46.0272 124.746 76.4337 124.746C106.84 124.746 126.246 116.592 126.246 110.978V93.9605C116.002 100.638 96.1485 104.094 76.4337 104.094C56.7189 104.094 36.8653 100.638 26.6219 93.9605Z" fill="#287EFF"/>
<path d="M26.8301 62.9083V81.8912C26.8301 87.5052 46.2354 95.6594 76.642 95.6594C107.049 95.6594 126.454 87.5052 126.454 81.8912V62.9083C116.922 70.2433 98.6268 75.0071 76.642 75.0071C54.6572 75.0071 36.362 70.2433 26.8301 62.9083Z" fill="#96C0FF"/>
<path d="M80.7827 28.5564L70.9828 65.1302" stroke="white" stroke-width="7.32226" stroke-linecap="round"/>
<path d="M55.7068 57.8869L55.7439 57.9026L55.7822 57.9154C56.1165 58.0268 56.4634 58.0985 56.811 58.0985C57.3824 58.0985 57.8897 57.8693 58.2714 57.4529C58.6893 56.9969 58.828 56.4206 58.828 55.8728V55.2203C58.828 54.6707 58.684 54.1439 58.3646 53.6834C58.0505 53.2305 57.61 52.9038 57.1129 52.6726L57.0917 52.6627L57.07 52.6538L42.8664 46.8198L57.0395 41.0431C57.5708 40.8591 58.0326 40.5398 58.3605 40.0628C58.6846 39.5914 58.828 39.0519 58.828 38.4903V37.8117C58.828 37.2639 58.6893 36.6875 58.2714 36.2316C57.8897 35.8152 57.3824 35.586 56.811 35.586C56.4634 35.586 56.1165 35.6576 55.7822 35.7691L55.7433 35.782L55.7057 35.798L36.6528 43.889L36.6449 43.8923L36.6371 43.8958C36.1269 44.1225 35.6708 44.4443 35.343 44.8959C35.0078 45.3577 34.8539 45.891 34.8539 46.4507V47.2598C34.8539 47.8196 35.0078 48.3529 35.343 48.8146C35.6708 49.2663 36.1269 49.588 36.6371 49.8148L36.6455 49.8185L36.6539 49.822L55.7068 57.8869Z" fill="white" stroke="white" stroke-width="2.05023"/>
<path d="M96.059 57.8869L96.0218 57.9026L95.9836 57.9154C95.6493 58.0268 95.3024 58.0985 94.9547 58.0985C94.3833 58.0985 93.8761 57.8693 93.4943 57.4529C93.0764 56.9969 92.9378 56.4206 92.9378 55.8728V55.2203C92.9378 54.6707 93.0818 54.1439 93.4011 53.6834C93.7153 53.2305 94.1557 52.9038 94.6529 52.6726L94.6741 52.6627L94.6957 52.6538L108.899 46.8198L94.7263 41.0431C94.1949 40.8591 93.7332 40.5398 93.4053 40.0628C93.0812 39.5914 92.9378 39.0519 92.9378 38.4903V37.8117C92.9378 37.2639 93.0764 36.6875 93.4943 36.2316C93.8761 35.8152 94.3833 35.586 94.9547 35.586C95.3024 35.586 95.6493 35.6576 95.9836 35.7691L96.0224 35.782L96.0601 35.798L115.113 43.889L115.121 43.8923L115.129 43.8958C115.639 44.1225 116.095 44.4443 116.423 44.8959C116.758 45.3577 116.912 45.891 116.912 46.4507V47.2598C116.912 47.8196 116.758 48.3529 116.423 48.8146C116.095 49.2663 115.639 49.588 115.129 49.8148L115.12 49.8185L115.112 49.822L96.059 57.8869Z" fill="white" stroke="white" stroke-width="2.05023"/>
</svg>
